<svg xmlns="http://www.w3.org/2000/svg" width="545" height="516" fill="none" viewBox="0 0 545 516">
  <path stroke="#2D3C3A" stroke-width="3" d="m157.967 336.253 2.585-219.518c.178-15.141 17.478-23.667 29.594-14.586l207.39 155.446c12.117 9.082 8.787 28.079-5.696 32.498l-209.975 64.072c-11.975 3.654-24.046-5.393-23.898-17.912Z"/>
  <path stroke="#335450" stroke-width="3" d="m171.224 346.19 2.586-219.518c.178-15.141 17.477-23.667 29.594-14.586l207.39 155.446c12.117 9.082 8.787 28.079-5.696 32.498l-209.975 64.072c-11.975 3.654-24.046-5.393-23.899-17.912Z"/>
  <path stroke="#789264" stroke-width="3" d="m187.428 358.335 2.585-219.518c.178-15.141 17.478-23.667 29.594-14.586l207.39 155.447c12.117 9.081 8.787 28.078-5.696 32.497l-209.975 64.072c-11.975 3.654-24.046-5.393-23.898-17.912Z"/>
  <path stroke="#5F886F" stroke-width="3" d="m205.104 371.584 2.585-219.518c.179-15.141 17.478-23.667 29.595-14.585l207.39 155.446c12.116 9.082 8.787 28.079-5.696 32.498l-209.976 64.072c-11.975 3.654-24.045-5.394-23.898-17.913Z"/>
</svg>
